<svg width="30" height="12" viewBox="0 0 30 12" fill="none" xmlns="http://www.w3.org/2000/svg">
<path d="M2.184 2.428V4.78H6.856V6.908H2.184V9.372H6.856V11.5H0.0400001V0.299999H6.856V2.428H2.184ZM18.1286 0.299999V11.5H15.9846L11.8246 4.284V11.5H9.68063V0.299999H11.8246L15.9846 7.516V0.299999H18.1286ZM25.0999 7.228V5.1H29.3239V7.516C29.3239 9.996 27.7879 11.66 25.0999 11.66C22.4119 11.66 20.8759 9.996 20.8759 7.516V4.284C20.8759 1.804 22.4119 0.139999 25.0999 0.139999C27.6279 0.139999 29.1319 1.612 29.3079 3.836H27.1479C26.9559 2.828 26.1239 2.268 25.0999 2.268C23.9319 2.268 23.0199 2.988 23.0199 4.284V7.516C23.0199 8.812 23.9319 9.532 25.0999 9.532C26.2679 9.532 27.1799 8.812 27.1799 7.516V7.228H25.0999Z" fill="#252020"/>
</svg>
